<svg width="39" height="39" viewBox="0 0 39 39" fill="none" xmlns="http://www.w3.org/2000/svg">
<path d="M34.9375 24.375C34.9339 23.3995 34.6377 22.4476 34.0873 21.6422C33.5369 20.8369 32.7575 20.2152 31.85 19.8575L34.8888 8.4825C34.9522 8.24025 34.9589 7.9866 34.9081 7.74136C34.8574 7.49612 34.7507 7.26593 34.5963 7.06875C34.4384 6.884 34.2411 6.73699 34.019 6.63857C33.7968 6.54014 33.5554 6.49279 33.3125 6.5H11.05L10.5138 4.4525C10.4205 4.10623 10.2154 3.80053 9.93025 3.58302C9.64515 3.36551 9.2961 3.24843 8.9375 3.25H5.6875V6.5H7.68625L11.7163 21.5475C11.8115 21.902 12.0239 22.2138 12.319 22.4322C12.6141 22.6506 12.9744 22.7626 13.3413 22.75H30.0625C30.4935 22.75 30.9068 22.9212 31.2116 23.226C31.5163 23.5307 31.6875 23.944 31.6875 24.375C31.6875 24.806 31.5163 25.2193 31.2116 25.524C30.9068 25.8288 30.4935 26 30.0625 26H8.9375C8.50652 26 8.0932 26.1712 7.78845 26.476C7.48371 26.7807 7.3125 27.194 7.3125 27.625C7.3125 28.056 7.48371 28.4693 7.78845 28.7741C8.0932 29.0788 8.50652 29.25 8.9375 29.25H10.855C10.5877 29.9863 10.5019 30.7762 10.6046 31.5528C10.7074 32.3294 10.9958 33.0697 11.4454 33.7112C11.895 34.3527 12.4925 34.8764 13.1874 35.2379C13.8824 35.5995 14.6542 35.7882 15.4375 35.7882C16.2208 35.7882 16.9926 35.5995 17.6876 35.2379C18.3825 34.8764 18.98 34.3527 19.4296 33.7112C19.8792 33.0697 20.1676 32.3294 20.2704 31.5528C20.3731 30.7762 20.2873 29.9863 20.02 29.25H23.855C23.6117 29.9205 23.5185 30.6362 23.582 31.3466C23.6455 32.057 23.864 32.7449 24.2223 33.3616C24.5806 33.9784 25.0699 34.509 25.6556 34.916C26.2413 35.3231 26.9092 35.5966 27.6121 35.7174C28.3151 35.8382 29.036 35.8033 29.724 35.6151C30.4119 35.4269 31.0502 35.09 31.5938 34.6282C32.1374 34.1664 32.5731 33.591 32.87 32.9425C33.167 32.294 33.318 31.5882 33.3125 30.875C33.3095 30.0355 33.0853 29.2116 32.6625 28.4863C33.3574 28.0481 33.9303 27.4416 34.328 26.7228C34.7257 26.0041 34.9354 25.1965 34.9375 24.375ZM28.5838 19.5H14.625L11.9275 9.75H31.2L28.5838 19.5ZM15.4375 32.5C15.1161 32.5 14.8019 32.4047 14.5347 32.2261C14.2675 32.0476 14.0592 31.7938 13.9362 31.4969C13.8132 31.1999 13.781 30.8732 13.8437 30.558C13.9064 30.2428 14.0612 29.9532 14.2885 29.726C14.5157 29.4987 14.8053 29.3439 15.1205 29.2812C15.4357 29.2185 15.7624 29.2507 16.0594 29.3737C16.3563 29.4967 16.6101 29.705 16.7886 29.9722C16.9672 30.2394 17.0625 30.5536 17.0625 30.875C17.0625 31.306 16.8913 31.7193 16.5865 32.0241C16.2818 32.3288 15.8685 32.5 15.4375 32.5ZM28.4375 32.5C28.1161 32.5 27.8019 32.4047 27.5347 32.2261C27.2675 32.0476 27.0592 31.7938 26.9362 31.4969C26.8132 31.1999 26.781 30.8732 26.8437 30.558C26.9064 30.2428 27.0612 29.9532 27.2885 29.726C27.5157 29.4987 27.8053 29.3439 28.1205 29.2812C28.4357 29.2185 28.7624 29.2507 29.0594 29.3737C29.3563 29.4967 29.6101 29.705 29.7886 29.9722C29.9672 30.2394 30.0625 30.5536 30.0625 30.875C30.0625 31.306 29.8913 31.7193 29.5866 32.0241C29.2818 32.3288 28.8685 32.5 28.4375 32.5Z" fill="#07080A"/>
</svg>
