<svg width="45" height="46" viewBox="0 0 45 46" fill="none" xmlns="http://www.w3.org/2000/svg">
<ellipse cx="22.5" cy="23" rx="22.5" ry="23" fill="#DADADA"/>
<path fill-rule="evenodd" clip-rule="evenodd" d="M22.5 13.5C20.0147 13.5 18 15.5147 18 18C18 20.4853 20.0147 22.5 22.5 22.5C24.9853 22.5 27 20.4853 27 18C27 15.5147 24.9853 13.5 22.5 13.5ZM15.75 18C15.75 14.2721 18.7721 11.25 22.5 11.25C26.2279 11.25 29.25 14.2721 29.25 18C29.25 21.7279 26.2279 24.75 22.5 24.75C18.7721 24.75 15.75 21.7279 15.75 18ZM18 29.25C16.136 29.25 14.625 30.761 14.625 32.625C14.625 33.2463 14.1213 33.75 13.5 33.75C12.8787 33.75 12.375 33.2463 12.375 32.625C12.375 29.5184 14.8934 27 18 27H27C30.1066 27 32.625 29.5184 32.625 32.625C32.625 33.2463 32.1213 33.75 31.5 33.75C30.8787 33.75 30.375 33.2463 30.375 32.625C30.375 30.761 28.864 29.25 27 29.25H18Z" fill="white"/>
</svg>
