<svg width="39" height="39" viewBox="0 0 39 39" fill="none" xmlns="http://www.w3.org/2000/svg">
<path d="M32.76 7.49125C31.0347 5.76551 28.7474 4.71628 26.314 4.53437C23.8805 4.35246 21.4626 5.04995 19.5 6.5C17.4324 4.96216 14.8589 4.26483 12.2978 4.54844C9.73671 4.83204 7.37817 6.07552 5.69717 8.02845C4.01616 9.98139 3.13755 12.4987 3.23826 15.0735C3.33898 17.6483 4.41154 20.0893 6.23996 21.905L18.3462 34.0113C18.4973 34.1636 18.677 34.2845 18.875 34.367C19.073 34.4494 19.2854 34.4919 19.5 34.4919C19.7145 34.4919 19.9269 34.4494 20.1249 34.367C20.3229 34.2845 20.5026 34.1636 20.6537 34.0113L32.76 21.905C33.7068 20.9588 34.4579 19.8353 34.9703 18.5987C35.4828 17.3621 35.7465 16.0367 35.7465 14.6981C35.7465 13.3596 35.4828 12.0341 34.9703 10.7975C34.4579 9.56095 33.7068 8.43745 32.76 7.49125ZM30.4687 19.6138L19.5 30.5662L8.53121 19.6138C7.56462 18.6431 6.90617 17.4087 6.63846 16.0653C6.37075 14.7219 6.5057 13.3294 7.02638 12.0624C7.54706 10.7954 8.43029 9.71034 9.56527 8.94339C10.7002 8.17644 12.0364 7.76172 13.4062 7.75125C15.2361 7.75574 16.9895 8.4863 18.2812 9.7825C18.4323 9.93481 18.612 10.0557 18.81 10.1382C19.008 10.2207 19.2204 10.2632 19.435 10.2632C19.6495 10.2632 19.8619 10.2207 20.0599 10.1382C20.2579 10.0557 20.4376 9.93481 20.5887 9.7825C21.9185 8.63019 23.6364 8.02611 25.3947 8.09254C27.153 8.15897 28.8205 8.89094 30.0595 10.1403C31.2985 11.3897 32.0167 13.0631 32.0685 14.8219C32.1203 16.5808 31.502 18.2936 30.3387 19.6138H30.4687Z" fill="#07080A"/>
</svg>
