<svg width="190" height="42" viewBox="0 0 190 42" fill="none" xmlns="http://www.w3.org/2000/svg">
<path d="M27.7578 20.7656L28.2266 19.7109C31.9141 11.3828 34.5859 5.96875 36.2422 3.46875C36.5078 3.125 36.7344 2.85938 36.9219 2.67188C37.1094 2.46875 37.3203 2.28906 37.5547 2.13281C37.8047 1.97656 38.125 1.82031 38.5156 1.66406C39.6406 1.17969 41.0938 0.9375 42.875 0.9375C43.7969 0.9375 44.375 1.01562 44.6094 1.17188C44.8594 1.32812 44.9844 1.67969 44.9844 2.22656C44.9844 2.64844 44.9688 3.10156 44.9375 3.58594C44.8125 6.39844 44.75 8.39844 44.75 9.58594C44.75 12.5859 44.9531 15.4297 45.3594 18.1172C45.625 19.6172 46.0156 21.1406 46.5312 22.6875C47.0781 24.0625 47.6016 25.1172 48.1016 25.8516C48.6953 26.6641 49.1953 27.2578 49.6016 27.6328C50.1016 28.1328 50.3516 28.5156 50.3516 28.7812C50.3516 29.2656 49.9375 29.9219 49.1094 30.75C47.7188 32.0938 46.3281 32.7656 44.9375 32.7656C42.9844 32.7656 41.2109 31.9297 39.6172 30.2578C38.8047 29.4453 38.1562 28.5469 37.6719 27.5625C37.2031 26.5625 36.8516 25.3359 36.6172 23.8828C36.3828 22.4141 36.2266 20.5547 36.1484 18.3047C36.0391 15.8672 35.9766 14.4922 35.9609 14.1797H35.8672C34.8828 16.0703 34.0625 17.6484 33.4062 18.9141C32.75 20.1797 32.2109 21.2266 31.7891 22.0547C31.3828 22.8828 30.8984 23.875 30.3359 25.0312C28.5547 28.7188 27.3906 30.9453 26.8438 31.7109C26.8125 31.7422 26.75 31.8125 26.6562 31.9219C26.5625 32.0312 26.4766 32.1172 26.3984 32.1797C26.1328 32.4297 25.8281 32.625 25.4844 32.7656C25.1562 32.8906 24.875 32.9531 24.6406 32.9531C23.9844 32.9531 23.2578 32.5469 22.4609 31.7344C21.6797 30.9062 20.9922 29.8438 20.3984 28.5469C19.7891 27.1719 19.2891 25.7734 18.8984 24.3516C18.5234 22.9141 18.1875 21.2188 17.8906 19.2656C17.6094 17.2969 17.3594 14.8984 17.1406 12.0703H17.0469C16.5781 13.1016 16.2266 13.875 15.9922 14.3906C15.7578 14.9062 15.3984 15.7031 14.9141 16.7812C14.4297 17.8594 14.1484 18.4844 14.0703 18.6562C13.4297 20.0781 12.7578 21.5156 12.0547 22.9688C11.3516 24.4219 10.7812 25.5391 10.3438 26.3203C9.92188 27.1016 9.45312 27.875 8.9375 28.6406C8.70312 29 8.28906 29.5078 7.69531 30.1641C6.77344 31.0391 5.76562 31.7266 4.67188 32.2266C3.57812 32.7109 2.53906 32.9531 1.55469 32.9531C1.17969 32.9531 0.851562 32.8594 0.570312 32.6719C0.289062 32.4844 0.148438 32.2422 0.148438 31.9453C0.148438 31.6797 0.359375 31.3281 0.78125 30.8906C1.01562 30.6094 1.52344 29.8906 2.30469 28.7344L3.66406 26.625C4.50781 25.375 5.78125 23.1328 7.48438 19.8984L8.60938 17.7891C11.2344 12.7578 13.0078 9.32031 13.9297 7.47656C14.8516 5.61719 15.3125 4.53906 15.3125 4.24219C15.3125 3.91406 15.0781 3.54688 14.6094 3.14062C14.25 2.84375 14.0703 2.58594 14.0703 2.36719C14.0703 2.02344 14.5234 1.70312 15.4297 1.40625C16.3359 1.09375 17.3203 0.9375 18.3828 0.9375C20.5234 0.9375 22.0469 1.41406 22.9531 2.36719C23.5156 2.96094 24.0391 4.13281 24.5234 5.88281C25.0078 7.61719 25.4922 10.1406 25.9766 13.4531C26.0078 13.6406 26.0312 13.7891 26.0469 13.8984C26.0625 13.9922 26.0781 14.0781 26.0938 14.1562C26.1094 14.2344 26.1172 14.3359 26.1172 14.4609C26.2109 14.8984 26.2578 15.1875 26.2578 15.3281C26.5859 17.3438 26.8359 18.6484 27.0078 19.2422C27.1797 19.8203 27.4297 20.3281 27.7578 20.7656Z" fill="#FFC01D"/>
<path d="M70.2266 10.5938L65.9141 19.7109H72.2891L70.3203 10.5938H70.2266ZM68.2109 4.42969L66.7812 1.85156C67.1406 1.57031 67.4766 1.375 67.7891 1.26562C68.9922 0.859375 70.4453 0.65625 72.1484 0.65625C73.8672 0.65625 75.1953 1.14844 76.1328 2.13281C76.9453 2.99219 77.6094 4.19531 78.125 5.74219C78.6406 7.28906 79.1172 9.49219 79.5547 12.3516C79.7891 13.8047 79.9922 14.8984 80.1641 15.6328C80.7109 17.6797 81.0703 18.9922 81.2422 19.5703C81.4297 20.1328 81.7578 21.0391 82.2266 22.2891C82.3828 22.6484 82.5859 23.1562 82.8359 23.8125C83.1016 24.4531 83.3516 25.0547 83.5859 25.6172C84.1016 26.8359 84.8828 28.4453 85.9297 30.4453C84.6172 31.3672 83.5078 32.0312 82.6016 32.4375C81.6953 32.8438 80.8672 33.0469 80.1172 33.0469C79.1953 33.0469 78.4219 32.8672 77.7969 32.5078C77.1875 32.1484 76.6328 31.5781 76.1328 30.7969C75.5391 29.7344 74.9453 28.2891 74.3516 26.4609C74.2891 26.2891 74.2109 26.0703 74.1172 25.8047C74.0391 25.5391 73.9453 25.25 73.8359 24.9375C72.0078 25.7031 70.5859 26.0859 69.5703 26.0859C68.9922 26.0859 68.4922 26.0703 68.0703 26.0391C67.7109 26.0078 66.0469 25.9609 63.0781 25.8984L62.8438 26.3672C61.9688 28.1953 61.1562 29.5859 60.4062 30.5391C59.6562 31.4922 58.7891 32.1641 57.8047 32.5547C56.8359 32.9453 55.6172 33.1406 54.1484 33.1406C53.3047 33.1406 52.7031 33.0469 52.3438 32.8594C51.9844 32.6719 51.8047 32.3672 51.8047 31.9453C51.8047 31.4297 52.6641 30.0078 54.3828 27.6797C54.9922 26.8672 55.4453 26.2266 55.7422 25.7578C54.1016 25.4453 53.2812 24.8672 53.2812 24.0234C53.2812 23.3359 53.9375 22.3125 55.25 20.9531C55.875 20.2969 56.4531 19.8828 56.9844 19.7109C57.5312 19.5234 58.4766 19.4219 59.8203 19.4062C61.0703 17.1094 61.8672 15.6484 62.2109 15.0234C62.5547 14.3828 63 13.5859 63.5469 12.6328C64.0938 11.6641 64.7109 10.5703 65.3984 9.35156C66.1016 8.11719 67.0391 6.47656 68.2109 4.42969Z" fill="#7231FF"/>
<path d="M107 8.03906L107.633 6.44531C107.164 6.49219 106.68 6.5625 106.18 6.65625C105.867 6.71875 105.438 6.75 104.891 6.75C104.125 6.75 103.742 6.36719 103.742 5.60156C103.742 5.27344 103.836 4.89062 104.023 4.45312C104.227 4 104.453 3.65625 104.703 3.42188C105.25 2.90625 106.391 2.48438 108.125 2.15625C109.875 1.82812 111.922 1.66406 114.266 1.66406C116.062 1.66406 117.773 1.90625 119.398 2.39062C121.039 2.875 122.453 3.54688 123.641 4.40625C124.828 5.25 125.75 6.22656 126.406 7.33594C127.078 8.42969 127.414 9.625 127.414 10.9219C127.414 12.3125 127.125 13.6094 126.547 14.8125C125.969 16 125.148 17.0391 124.086 17.9297C123.383 18.5234 122.727 18.9766 122.117 19.2891C121.508 19.6016 120.633 19.9297 119.492 20.2734C119.789 20.8203 120.047 21.2422 120.266 21.5391C120.5 21.8359 120.883 22.25 121.414 22.7812C122.82 24.0469 124.836 25.1953 127.461 26.2266C127.586 26.2891 127.742 26.3516 127.93 26.4141C127.648 27.7422 127.383 28.7109 127.133 29.3203C126.883 29.9297 126.492 30.5938 125.961 31.3125C124.992 32.5938 123.828 33.2344 122.469 33.2344C121.719 33.2344 120.789 32.9609 119.68 32.4141C118.586 31.8516 117.688 31.1953 116.984 30.4453C116.438 29.8047 115.93 29.125 115.461 28.4062C115.008 27.6875 114.547 26.875 114.078 25.9688C113.609 25.0469 113.203 24.1562 112.859 23.2969C112.531 22.4219 112.289 21.6562 112.133 21C112.102 20.875 112.086 20.6953 112.086 20.4609C112.086 20.1328 112.18 19.875 112.367 19.6875C112.555 19.5 112.898 19.3281 113.398 19.1719C114.102 18.9219 114.68 18.6484 115.133 18.3516C115.586 18.0391 116.156 17.5625 116.844 16.9219C117.625 16.0625 118.234 15.0625 118.672 13.9219C119.125 12.7656 119.352 11.6016 119.352 10.4297C119.352 9.03906 119.031 7.96094 118.391 7.19531C117.75 6.41406 116.727 5.86719 115.32 5.55469C113.977 10.4453 112.648 15.0469 111.336 19.3594L110.844 21.1406C110.031 23.9531 109.344 26.0391 108.781 27.3984C108.234 28.7578 107.688 29.7109 107.141 30.2578C106.594 30.8047 105.742 31.3438 104.586 31.875C103.43 32.4062 102.523 32.6719 101.867 32.6719C100.586 32.6719 99.9453 31.9531 99.9453 30.5156C99.9453 29.9219 100.117 28.9062 100.461 27.4688C100.82 26.0156 101.367 24.125 102.102 21.7969C102.836 19.4531 103.602 17.1641 104.398 14.9297C105.211 12.6953 106.078 10.3984 107 8.03906ZM152.281 37.1719C150.094 39.9844 148.43 41.3906 147.289 41.3906C146.461 41.3906 145.586 41.0625 144.664 40.4062C143.758 39.7656 142.906 38.8906 142.109 37.7812C141.312 36.6875 140.68 35.5 140.211 34.2188C139.742 32.9375 139.508 31.7188 139.508 30.5625C139.508 29.9062 139.617 29.4688 139.836 29.25C139.93 29.1562 140.141 29 140.469 28.7812C143.094 27.1562 144.406 25.6172 144.406 24.1641C144.406 23.3984 144.07 23.0156 143.398 23.0156C142.68 23.0156 141.75 23.7109 140.609 25.1016C139.484 26.4766 138.461 28.1641 137.539 30.1641C136.992 31.4297 136.523 32.2344 136.133 32.5781C135.773 32.8906 135.219 33.0469 134.469 33.0469C133.641 33.0469 132.922 32.8203 132.312 32.3672C131.703 31.8984 131.227 31.2422 130.883 30.3984C130.555 29.5391 130.391 28.5625 130.391 27.4688C130.391 25.7812 130.602 23.9375 131.023 21.9375C131.445 19.9375 132.031 17.9297 132.781 15.9141C133.547 13.8984 134.453 11.9297 135.5 10.0078C136.547 8.08594 137.641 6.39062 138.781 4.92188C141.031 2.07812 143.227 0.65625 145.367 0.65625C146.43 0.65625 147.375 0.898437 148.203 1.38281C149.047 1.86719 149.695 2.55469 150.148 3.44531C150.602 4.33594 150.828 5.375 150.828 6.5625C150.828 8.01562 150.469 9.46875 149.75 10.9219C149.031 12.3594 148.094 13.5391 146.938 14.4609C145.797 15.3672 144.648 15.8203 143.492 15.8203C142.945 15.8203 142.672 15.625 142.672 15.2344C142.672 15.0781 142.812 14.7109 143.094 14.1328C144.469 11.4141 145.156 8.32812 145.156 4.875C145.156 3.98438 145.047 3.53906 144.828 3.53906C144.672 3.53906 144.43 3.76562 144.102 4.21875C143.789 4.67188 143.484 5.22656 143.188 5.88281C141.469 9.74219 140.227 14.1875 139.461 19.2188C139.414 19.4844 139.359 19.8359 139.297 20.2734C139.25 20.7109 139.188 21.2109 139.109 21.7734L139.203 21.8672C139.844 20.9609 140.367 20.2891 140.773 19.8516C141.195 19.3984 141.75 18.9141 142.438 18.3984C144.547 16.7422 146.516 15.9141 148.344 15.9141C149.281 15.9141 150.047 16.1875 150.641 16.7344C151.25 17.2812 151.555 17.9844 151.555 18.8438C151.555 20.9531 150.883 23.125 149.539 25.3594C149.164 26.0156 148.727 26.6641 148.227 27.3047C147.742 27.9453 147.039 28.7734 146.117 29.7891C146.68 30.7422 147.32 31.7031 148.039 32.6719C148.68 33.5156 149.484 34.3594 150.453 35.2031C151.297 35.9062 151.906 36.5625 152.281 37.1719ZM162.055 25.7109C162.773 25.2266 163.32 24.7422 163.695 24.2578C164.523 23.2422 165.164 22.0781 165.617 20.7656C165.977 19.9062 166.258 18.9453 166.461 17.8828C166.664 16.8203 166.766 15.8281 166.766 14.9062C166.766 14.0469 166.586 13.6172 166.227 13.6172C165.727 13.6172 164.961 14.7188 163.93 16.9219C163.32 18.25 162.82 19.5781 162.43 20.9062C162.055 22.2188 161.867 23.3516 161.867 24.3047C161.867 24.6328 161.93 25.1016 162.055 25.7109ZM162.102 26.4609C162.273 27.3984 162.883 27.8672 163.93 27.8672C165.102 27.8672 166.625 27.1797 168.5 25.8047C169.594 25.0078 170.328 24.6094 170.703 24.6094C171.172 24.6094 171.609 24.7344 172.016 24.9844C172.422 25.2344 172.625 25.4922 172.625 25.7578C172.625 26.0391 172.398 26.4062 171.945 26.8594C171.117 27.6875 170.164 28.5 169.086 29.2969C168.008 30.0781 166.969 30.7344 165.969 31.2656C164.969 31.7812 163.969 32.1953 162.969 32.5078C161.969 32.8047 161.078 32.9531 160.297 32.9531C158.344 32.9531 156.781 32.3984 155.609 31.2891C154.438 30.1641 153.852 28.6719 153.852 26.8125C153.852 25.3906 154.156 23.7891 154.766 22.0078C155.391 20.2109 156.227 18.5312 157.273 16.9688C158.508 15.1406 160.023 13.6172 161.82 12.3984C164.039 10.9297 166.164 10.1953 168.195 10.1953C169.664 10.1953 170.812 10.6641 171.641 11.6016C172.484 12.5234 172.906 13.7969 172.906 15.4219C172.906 16.6875 172.57 18.0078 171.898 19.3828C171.242 20.7578 170.266 22.0781 168.969 23.3438C167.906 24.4062 166.859 25.2344 165.828 25.8281C164.812 26.4219 163.922 26.7188 163.156 26.7188C162.812 26.7188 162.461 26.6328 162.102 26.4609ZM178.906 10.3359L179 10.0547C180.031 7.14844 180.922 5.10156 181.672 3.91406C182.031 3.35156 182.531 2.85156 183.172 2.41406C184.375 1.64844 185.508 1.26562 186.57 1.26562C187.195 1.26562 187.672 1.40625 188 1.6875C188.328 1.96875 188.492 2.375 188.492 2.90625C188.492 3.26562 188.258 4 187.789 5.10938C186.992 6.95312 186.398 8.67969 186.008 10.2891C186.273 10.3203 186.531 10.3672 186.781 10.4297C187.719 10.5703 188.336 10.7344 188.633 10.9219C188.93 11.0938 189.078 11.4141 189.078 11.8828C189.078 12.7109 188.867 13.4766 188.445 14.1797C188.023 14.8828 187.469 15.3984 186.781 15.7266C186.266 15.9609 185.43 16.1172 184.273 16.1953C184.07 16.8047 183.844 17.6406 183.594 18.7031C183.453 19.6406 183.297 20.9375 183.125 22.5938C183.031 23.2031 182.984 23.7734 182.984 24.3047C182.984 26.7734 184.18 28.0078 186.57 28.0078H186.711H186.781C187.062 28.0078 187.203 28.0547 187.203 28.1484C187.203 28.3984 186.938 28.8203 186.406 29.4141C185.875 30.0078 185.289 30.5312 184.648 30.9844C183.961 31.4531 183.211 31.8281 182.398 32.1094C181.586 32.3906 180.852 32.5312 180.195 32.5312C178.555 32.5312 177.219 31.9766 176.188 30.8672C175.172 29.7578 174.664 28.2891 174.664 26.4609C174.664 25.6797 174.797 24.6562 175.062 23.3906C175.344 22.125 175.773 20.4297 176.352 18.3047C176.445 17.9297 176.547 17.5391 176.656 17.1328C176.766 16.7109 176.828 16.4609 176.844 16.3828C176.219 16.3672 175.773 16.2344 175.508 15.9844C175.242 15.7344 175.109 15.3281 175.109 14.7656C175.109 13.7812 175.484 12.8516 176.234 11.9766C177 11.1016 177.891 10.5547 178.906 10.3359Z" fill="#07080A"/>
</svg>
