<svg width="54" height="53" viewBox="0 0 54 53" fill="none" xmlns="http://www.w3.org/2000/svg">
<path d="M26.9123 52.765C41.4829 52.765 53.2948 40.9531 53.2948 26.3825C53.2948 11.8118 41.4829 0 26.9123 0C12.3416 0 0.529785 11.8118 0.529785 26.3825C0.529785 40.9531 12.3416 52.765 26.9123 52.765Z" fill="url(#paint0_linear_9_329)"/>
<path fill-rule="evenodd" clip-rule="evenodd" d="M12.472 26.104C20.1631 22.7531 25.2916 20.544 27.8577 19.4767C35.1844 16.4293 36.7068 15.8999 37.6991 15.8824C37.9174 15.8786 38.4053 15.9327 38.7214 16.1892C38.9883 16.4057 39.0618 16.6983 39.0969 16.9036C39.1321 17.109 39.1758 17.5767 39.141 17.9422C38.744 22.1139 37.026 32.2375 36.152 36.9099C35.7822 38.8869 35.054 39.5498 34.349 39.6147C32.8169 39.7557 31.6536 38.6022 30.1697 37.6295C27.8477 36.1074 26.5359 35.1599 24.282 33.6746C21.6772 31.9581 23.3658 31.0147 24.8502 29.4728C25.2387 29.0693 31.9891 22.9293 32.1197 22.3724C32.1361 22.3027 32.1512 22.043 31.997 21.9059C31.8427 21.7688 31.615 21.8157 31.4507 21.853C31.2179 21.9058 27.5084 24.3576 20.3225 29.2084C19.2695 29.9314 18.3159 30.2836 17.4614 30.2652C16.5194 30.2448 14.7074 29.7326 13.3603 29.2947C11.7081 28.7576 10.395 28.4737 10.5093 27.5616C10.5689 27.0865 11.2231 26.6006 12.472 26.104Z" fill="white"/>
<defs>
<linearGradient id="paint0_linear_9_329" x1="26.9123" y1="0" x2="26.9123" y2="52.3736" gradientUnits="userSpaceOnUse">
<stop/>
<stop offset="1"/>
</linearGradient>
</defs>
</svg>
